<svg width="381" height="192" fill="none" xmlns="http://www.w3.org/2000/svg"><g clip-path="url(#clip0_228_4420)"><path fill="#D6B7F5" d="M0 0h380.667v192H0z"/><path d="M54.334 94.922l-49.135 50.75 26.49 8.127 94.354-30.949-71.709-27.928z" fill="#32303A"/><path d="M86.17 21.096l-26.06 14.22c-4.742 55.14-34.806 75.755-48.693 85.277l-.15.103v28.722l45.512-18.396A42.61 42.61 0 0083.39 93.16l2.78-72.064z" fill="url(#paint0_linear_228_4420)" stroke="#32303A"/><path d="M-36.974 127.544v-27.7l49.156 21.458v28.089l-49.156-21.847z" fill="#E7E7E7" stroke="#000"/><path d="M29.524 6.606l-23.69 13.03L62.1 35.923l23.937-14.22L29.524 6.605z" fill="#fff" stroke="#000"/><path d="M12.181 121.302c38.38-18.833 50.117-62.872 49.624-85.379L5.835 19.34C5.834 70.275-10.582 83.6-37 99.45l49.181 21.853z" fill="#fff" stroke="#000"/><ellipse cx="118.825" cy="-1.598" rx="35.006" ry="15.22" fill="#32303A"/><ellipse cx="204.397" cy="158.499" rx="75.778" ry="43.639" fill="#32303A" stroke="#000"/><ellipse cx="193.408" cy="151.949" rx="67.679" ry="38.832" fill="#fff" stroke="#000"/><ellipse cx="193.408" cy="135.676" rx="67.679" ry="38.832" fill="#fff" stroke="#000"/><ellipse cx="193.408" cy="118.664" rx="67.679" ry="38.832" fill="#fff" stroke="#000"/><ellipse cx="193.409" cy="101.652" rx="67.679" ry="38.832" fill="#fff" stroke="#000"/><ellipse cx="193.409" cy="85.379" rx="67.679" ry="38.832" fill="#fff" stroke="#000"/><ellipse cx="193.409" cy="68.367" rx="67.679" ry="38.832" fill="#fff" stroke="#000"/><ellipse cx="193.409" cy="52.095" rx="67.679" ry="38.832" fill="#fff" stroke="#000"/><ellipse cx="193.408" cy="35.822" rx="67.679" ry="38.832" fill="url(#paint1_linear_228_4420)" stroke="#000"/><path d="M211.474 189.459V72.401c15.804 0 32.336-11.991 38.626-17.987v121.187c-18.87 11.086-33.613 13.858-38.626 13.858z" fill="url(#paint2_linear_228_4420)"/><path d="M38.26 185.616l21.972-14.13 89.073 51.151-22.854 13.689-88.19-50.71z" fill="#fff" stroke="#000"/><path d="M38.26 207.224v-21.166l88.632 50.269 23.004-13.099v20.725l-23.004 13.54-88.632-50.269z" fill="#fff"/><path d="M126.892 257.493L38.26 207.224v-21.166l88.632 50.269m0 21.166v-21.166m0 21.166l23.004-13.54v-20.725l-23.004 13.099" stroke="#000"/><path d="M58.342 150.177l21.971-14.13 89.074 51.15-22.854 13.69-88.191-50.71z" fill="#E1E1E1" stroke="#000"/><path d="M58.342 171.784v-21.166l88.632 50.269 20.605-14.062v22.763l-20.605 12.465-88.632-50.269z" fill="#fff"/><path d="M146.974 222.053l-88.632-50.269v-21.166l88.632 50.269m0 21.166v-21.166m0 21.166l20.605-12.465v-22.763l-20.605 14.062" stroke="#000"/><path d="M168.892 253.207v-67.472l-22.966 15.112v22.713l-18.706 11.357v22.045l-21.377 12.693v25.386l63.049-41.834z" fill="url(#paint3_linear_228_4420)" stroke="#000"/><path d="M295.108-93.907V62.86l24.409 9.576V-93.907c0-5.213-3.311-9.851-8.242-11.543-7.922-2.72-16.167 3.167-16.167 11.543z" fill="#fff" stroke="#000"/><path d="M278.834-87.99V68.777l24.409 9.576V-87.99c0-5.213-3.311-9.85-8.242-11.543-7.922-2.72-16.167 3.167-16.167 11.543z" fill="#fff" stroke="#000"/><path d="M319.485 72.383l-16.626 5.97V-90.594c-1.774-9.313-11.33-10.049-15.887-9.253l15.887-5.672c14.409-2.089 16.995 7.164 16.626 10.746V72.383z" fill="url(#paint4_linear_228_4420)" stroke="#000"/><path d="M294.368 79.944v62.747l42.79 25.044 44.86-27.787V79.944l-44.86-24.89-42.79 24.89z" fill="#fff" stroke="#000"/><path d="M382.279 135.307L419 143.813l-49.532 26.056-33.86-2.819 46.671-28.012v-3.731z" fill="#32303A" stroke="#000"/><g style="mix-blend-mode:darken"><path d="M336.61 167.187l-.001-62.754 45.75-24.138v58.365l-45.749 28.527z" fill="url(#paint5_linear_228_4420)"/><path d="M336.61 167.187l-.001-62.754 45.75-24.138v58.365l-45.749 28.527z" stroke="#000"/></g><ellipse cx="357.875" cy="121.089" rx="10.448" ry="16.353" transform="rotate(13.386 357.875 121.089)" fill="#BA4C29" stroke="#000"/><ellipse cx="361.572" cy="122.569" rx="10.448" ry="16.353" transform="rotate(13.386 361.572 122.569)" fill="#DB542A" stroke="#000"/><path d="M295.108 79.833l42.161 24.778v63.611" stroke="#000"/><path d="M251.987 236.781l84.691-69.159-32.62-20.917-87.205 70.475 35.134 19.601z" fill="#32303A" stroke="#000"/><path d="M209.308 215.56l93.937-130.92L337 104.5l-90.709 133.62-36.983-22.56z" fill="#fff" stroke="#000"/><path d="M337.268 114.227v-9.616L246.29 238.12l8.876-2.959 82.102-120.934z" fill="#0E9AA7" stroke="#000"/></g><defs><linearGradient id="paint0_linear_228_4420" x1="48.719" y1="21.096" x2="48.719" y2="149.418" gradientUnits="userSpaceOnUse"><stop stop-color="#48D69A"/><stop offset="1" stop-color="#204A39"/></linearGradient><linearGradient id="paint1_linear_228_4420" x1="193.408" y1="-3.01" x2="193.408" y2="74.654" gradientUnits="userSpaceOnUse"><stop stop-color="#94F6FF"/><stop offset="1" stop-color="#6595FF"/></linearGradient><linearGradient id="paint2_linear_228_4420" x1="230.787" y1="54.414" x2="230.787" y2="189.459" gradientUnits="userSpaceOnUse"><stop stop-color="#C4C4C4"/><stop offset="1" stop-color="#C4C4C4" stop-opacity="0"/></linearGradient><linearGradient id="paint3_linear_228_4420" x1="137.368" y1="185.735" x2="137.368" y2="295.041" gradientUnits="userSpaceOnUse"><stop stop-color="#FFBE3F"/><stop offset="1" stop-color="#EC8EB2"/></linearGradient><linearGradient id="paint4_linear_228_4420" x1="303.245" y1="-105.822" x2="303.245" y2="78.353" gradientUnits="userSpaceOnUse"><stop stop-color="#FCB2D2"/><stop offset="1" stop-color="#3B72EA"/></linearGradient><linearGradient id="paint5_linear_228_4420" x1="359.484" y1="80.295" x2="359.484" y2="167.187" gradientUnits="userSpaceOnUse"><stop stop-color="#FF8E6A"/><stop offset="1" stop-color="#FBDB64"/></linearGradient><clipPath id="clip0_228_4420"><path fill="#fff" d="M0 0h380.667v192H0z"/></clipPath></defs></svg>