<svg width="480" height="281" fill="none" xmlns="http://www.w3.org/2000/svg"><g clip-path="url(#clip0_3665_86960)"><path d="M0 8.584a8 8 0 018-8h463.697a8 8 0 018 8v272H0v-272z" fill="#D6B7F5"/><g clip-path="url(#clip1_3665_86960)"><rect x="-1" y="-47" width="481" height="416" rx="13.867" fill="#41246E"/><g clip-path="url(#clip2_3665_86960)"><path d="M201.224 232.623l-32.467-62.946-250.13 53.393 46.323 90.593 236.274-81.04z" fill="#7ACCCC"/><path d="M201.224 232.623l-236.274 81.04-3.625 4.15 236.8-82.485 3.099-2.705zM-31.174 286.47l-3.126-43.778 36.048 33.666-32.922 10.112zm39.307-31.802l-5.94-11.618 2.484-.754 5.94 11.618-2.484.754zm-7.378-3.141l-1.178-2.304 12.487-3.788 1.178 2.303-12.487 3.789zm19.853 2.771l-.984-1.925 3.246-8.112c.34-.878.604-1.636.79-2.275.188-.646.276-1.232.263-1.758a3.592 3.592 0 00-.414-1.561 3.513 3.513 0 00-1.217-1.378 3.911 3.911 0 00-1.715-.622 4.56 4.56 0 00-1.908.172c-.677.206-1.202.514-1.575.925a2.277 2.277 0 00-.606 1.444c-.03.552.115 1.144.437 1.774l-2.725.826c-.547-1.071-.761-2.088-.642-3.051.12-.962.528-1.805 1.226-2.526.695-.727 1.63-1.269 2.807-1.626 1.188-.36 2.348-.457 3.479-.291 1.134.159 2.15.539 3.047 1.14a6.044 6.044 0 012.068 2.311 5.34 5.34 0 01.582 2.037c.061.703-.036 1.537-.29 2.501-.256.958-.682 2.156-1.277 3.594l-1.887 4.801.066.129 8.515-2.584 1.165 2.278-12.45 3.777zm17.891-5.239c-.505.153-1.024.118-1.557-.104-.536-.228-.926-.579-1.169-1.055-.24-.47-.263-.926-.07-1.368.19-.448.538-.749 1.043-.902.505-.154 1.026-.116 1.562.112.533.222.92.568 1.16 1.037.16.315.223.631.185.947-.035.308-.15.582-.349.82a1.63 1.63 0 01-.805.513zm11.488-3.397a8.38 8.38 0 01-3.438.329 7.638 7.638 0 01-3.077-1.052 5.983 5.983 0 01-2.152-2.226l2.771-.841c.454.736 1.133 1.248 2.034 1.537a4.461 4.461 0 002.72.019c.726-.22 1.29-.57 1.693-1.05a2.86 2.86 0 00.666-1.701c.045-.649-.112-1.326-.472-2.03a4.998 4.998 0 00-3.532-2.671 4.66 4.66 0 00-2.245.115 5.178 5.178 0 00-1.587.799c-.485.359-.83.742-1.035 1.148l-2.798.432-3.473-9.191 10.4-3.155 1.164 2.277-8.026 2.435 1.918 5.106.11-.033c.2-.445.547-.871 1.043-1.279.501-.411 1.103-.722 1.805-.935a6.954 6.954 0 013.467-.169 7.894 7.894 0 013.201 1.441c.972.718 1.746 1.648 2.323 2.79.589 1.138.832 2.239.729 3.303a4.812 4.812 0 01-1.228 2.815c-.719.807-1.712 1.403-2.98 1.787z" fill="#186767"/><path d="M142.514 214.302c-1.096.324-2.169.337-3.216.037-1.048-.299-2.038-.896-2.969-1.79s-1.763-2.057-2.496-3.491c-.731-1.429-1.15-2.712-1.257-3.848-.102-1.138.098-2.089.602-2.855.508-.766 1.305-1.312 2.39-1.638 1.085-.325 2.152-.336 3.202-.033 1.048.3 2.037.894 2.966 1.784.931.884 1.762 2.041 2.493 3.47.735 1.438 1.157 2.727 1.267 3.868.107 1.136-.091 2.089-.592 2.858-.504.765-1.3 1.311-2.39 1.638zm-.879-1.719c.961-.288 1.488-.949 1.583-1.982.099-1.035-.273-2.377-1.115-4.025-.56-1.094-1.158-1.982-1.793-2.663-.634-.686-1.281-1.155-1.942-1.407-.659-.258-1.305-.292-1.938-.102-.956.287-1.482.95-1.579 1.989-.097 1.039.272 2.382 1.108 4.027.562 1.099 1.16 1.991 1.793 2.678.635.68 1.282 1.147 1.938 1.401a2.947 2.947 0 001.945.084zm9.359-.937a1.687 1.687 0 01-1.167-.081c-.402-.171-.694-.435-.876-.791-.18-.352-.198-.693-.053-1.024.143-.335.404-.559.783-.673.378-.114.768-.085 1.17.087.4.167.69.426.87.778.121.236.167.473.139.709-.026.23-.114.435-.262.613-.149.178-.35.306-.604.382zm8.478-2.478c-.993.298-1.951.403-2.876.314-.919-.091-1.737-.35-2.451-.779a4.16 4.16 0 01-1.612-1.715c-.29-.557-.43-1.106-.42-1.649a2.912 2.912 0 01.43-1.488 2.742 2.742 0 011.145-1.042l-.04-.077a3.788 3.788 0 01-2.236-.547 4.053 4.053 0 01-1.592-1.69c-.349-.673-.465-1.331-.347-1.976.12-.65.444-1.23.972-1.74.527-.509 1.227-.895 2.1-1.157a6.14 6.14 0 012.551-.231c.839.1 1.591.357 2.255.771.663.41 1.167.95 1.514 1.618.358.709.461 1.401.311 2.075-.151.674-.53 1.194-1.137 1.559l.04.077a3.975 3.975 0 011.743.175c.59.185 1.132.475 1.628.871.497.39.891.864 1.181 1.42.36.714.468 1.414.324 2.101-.144.687-.516 1.304-1.116 1.85-.594.545-1.384.965-2.367 1.26zm-.833-1.629c.586-.176 1.048-.418 1.385-.727.335-.314.537-.669.606-1.066.066-.401-.011-.823-.232-1.267a2.84 2.84 0 00-1.011-1.1 3.473 3.473 0 00-1.442-.525 3.802 3.802 0 00-1.63.14c-.559.167-1.004.417-1.335.749a2.052 2.052 0 00-.6 1.139c-.069.426.016.869.255 1.327.222.443.532.795.932 1.057.402.255.868.41 1.396.464.526.05 1.085-.013 1.676-.191zm-3.137-6.135c.47-.142.843-.355 1.118-.641a1.71 1.71 0 00.484-.991c.052-.378-.027-.777-.238-1.199a2.652 2.652 0 00-.871-.986 2.739 2.739 0 00-1.218-.459 3.279 3.279 0 00-1.399.123c-.489.147-.875.361-1.156.644-.28.277-.442.6-.487.97-.045.37.04.761.255 1.171.211.422.5.759.868 1.01s.779.41 1.234.476c.46.065.929.026 1.41-.118zm-39.884 36.902L84.956 211.69l28.129-6.821 2.533 33.437z" fill="#fff"/></g><path d="M20.48-19.96L20 50.913l123.855 34.284 2.704-56.7L20.479-19.96z" fill="#fff"/><path d="M20.002 50.914l-8.629 4.615v-71.204l9.108-4.286-.479 70.875z" fill="#ACACAC"/><path d="M143.856 85.189L20.002 50.905l-8.629 4.615 124.641 31.647 7.842-1.978z" fill="#6A6A6A"/><path d="M54.616 8.045v31.357l8.533 2.94V11.896l-8.533-3.85z" fill="#6D35AD"/><path d="M54.62 8.045l-2.013.673V39.77l2.013-.37V8.046z" fill="#9650FF"/><path d="M63.154 42.34L54.62 39.4l-2.013.368 7.785 2.572h2.761z" fill="#41246E"/><path d="M69.313 22.572v10.417l8.15 2.769v-9.56l-8.15-3.627z" fill="#6D35AD"/><path d="M69.313 22.572l-1.764 1.345v10.02l1.764-.948V22.572z" fill="#9650FF"/><path d="M77.463 35.744l-8.15-2.769-1.764.95 5.177 1.819h4.737z" fill="#41246E"/><path d="M85.289 22.55v22.127l8.533 2.94V26.401l-8.533-3.85z" fill="#6D35AD"/><path d="M85.293 22.55l-2.014.765v21.718l2.014-.356V22.55z" fill="#9650FF"/><path d="M93.826 47.617l-8.533-2.94-2.014.356 7.383 2.584h3.164z" fill="#41246E"/><path d="M101.919 19.933v14.373l8.15 2.769V23.559l-8.15-3.626z" fill="#6D35AD"/><path d="M101.923 19.933l-2.34 1.318v13.832l2.34-.777V19.933z" fill="#9650FF"/><path d="M110.072 37.074l-8.149-2.77-2.34.779 6.405 1.99h4.084z" fill="#41246E"/><path d="M117.255 25.201v40.745l8.15 2.77v-39.89l-8.15-3.626z" fill="#6D35AD"/><path d="M117.267 25.201l-2.339 1.319v40.23l2.339-.804V25.201z" fill="#9650FF"/><path d="M125.417 68.722l-8.15-2.769-2.339.805 6.404 1.964h4.085z" fill="#41246E"/><g clip-path="url(#clip3_3665_86960)"><path d="M323.518 36.99l.582 63.524 140.362-44.09.291-103.555-141.235 84.12z" fill="#7ACCCC"/><path d="M324.1 100.514l9.901.87 138.032-40.61-7.572-4.35-140.361 44.09z" fill="#186767"/><path d="M464.752-47.13l-.291 103.554 7.571 4.35V-43.43l-7.28-3.7z" fill="#269595"/><path d="M339.242 37.487V85.8M445.824-21.687V46.85m-76.88-24.945v53.373M403.598 2.18v59.175" stroke="#fff" stroke-width=".952" stroke-miterlimit="10"/><path d="M339.242 78.905l24.461-41.915 13.005 19.434 13.687-22.335 9.418 9.682 26.01-47.704 19.971 42.582" stroke="#280B45" stroke-width="1.904" stroke-miterlimit="10"/><path d="M338.987 83.4c1.106 0 2.003-1.818 2.003-4.061s-.897-4.06-2.003-4.06c-1.107 0-2.004 1.817-2.004 4.06 0 2.243.897 4.061 2.004 4.061zm24.425-41.77c1.448 0 2.621-1.818 2.621-4.06 0-2.244-1.173-4.062-2.621-4.062-1.447 0-2.62 1.818-2.62 4.061s1.173 4.061 2.62 4.061zm13.395 18.565c1.447 0 2.621-1.819 2.621-4.061 0-2.243-1.174-4.061-2.621-4.061-1.448 0-2.621 1.818-2.621 4.06 0 2.243 1.173 4.062 2.621 4.062zm13.979-22.625c1.448 0 2.621-1.819 2.621-4.062 0-2.243-1.173-4.06-2.621-4.06-1.447 0-2.62 1.817-2.62 4.06 0 2.243 1.173 4.061 2.62 4.061zm8.736 10.442c1.447 0 2.621-1.819 2.621-4.061 0-2.243-1.174-4.061-2.621-4.061-1.448 0-2.621 1.818-2.621 4.06 0 2.243 1.173 4.062 2.621 4.062zm46.302-6.382c1.608 0 2.912-1.818 2.912-4.06 0-2.244-1.304-4.062-2.912-4.062-1.608 0-2.912 1.818-2.912 4.061s1.304 4.061 2.912 4.061z" fill="#7F3ECA"/></g><path d="M316.846 176.418l-18.619 65.072L476 306.347l25.491-82.334-184.645-47.595z" fill="#CEBAFF"/><path d="M501.492 224.013l10.979 3.612-26.933 81.859-9.537-3.138 25.491-82.333z" fill="#7F3ECA"/><path d="M327.674 192.084l152.512 41.636m-165.808 5.251l147.158 54.086m-141.682-77.204l149.974 49.346" stroke="#6A6A6A" stroke-width=".476" stroke-miterlimit="10"/><path opacity=".2" d="M459.104 292.285s13.702-39.962 16.818-49.431c-12.156-4.569-32.993 19.902-43.875 20.593-10.882.692-11.577-16.624-13.541-30.086-1.963-13.462-13.927-9.481-17.846-4.049-3.918 5.432-13.259 20.87-20.104 15.769-6.846-5.1 2.646-40.424-6.545-44.872-9.191-4.448-23.797 33.465-31.911 32.22-8.113-1.246-3.584-27.964-13.367-30.614l-12.454 37.853 142.825 52.617z" fill="#186767"/><path opacity=".2" d="M348.825 199.043c13.459 4.429 2.658 30.778 14.195 34.574 11.536 3.796 11.726-10.381 21.532-7.155 7.691 2.531 3.927 26.924 15.464 30.719 11.536 3.796 34.446-39.928 49.828-34.867 15.382 5.061 4.565 30.294 20.706 36.872l-10.945 33.265-143.355-52.692s19.115-45.144 32.575-40.716z" fill="#186767"/><path d="M272.597 81.214l-14.043 10.71a71.802 71.802 0 00-1.72-27.756l14.042-10.71a71.935 71.935 0 011.721 27.732" fill="#3A1C5D"/><path d="M270.884 53.483l-14.043 10.71-20.987 2.916 14.034-10.71 20.996-2.916z" fill="#381B59"/><path d="M249.489 121.697l-14.042 10.71a58.914 58.914 0 0014.217-15.604 62.608 62.608 0 008.889-24.88l14.043-10.71a62.71 62.71 0 01-8.889 24.887 59.28 59.28 0 01-14.218 15.597z" fill="#3A1C5D"/><path d="M235.105 103.567l-14.042 10.718a40.981 40.981 0 009.813-10.718 44.108 44.108 0 006.149-17.22 50.042 50.042 0 00-1.179-19.205l14.043-10.71a50.22 50.22 0 011.178 19.206 44.186 44.186 0 01-6.149 17.22 41.108 41.108 0 01-9.813 10.709z" fill="#838383"/><path d="M235.108 103.55l-14.042 10.718a42.144 42.144 0 01-19.841 8.196l14.042-10.71a42.157 42.157 0 0019.841-8.204z" fill="#3A1C5D"/><path d="M249.49 121.685l-14.043 10.71a60.78 60.78 0 01-28.674 11.821l14.058-10.71a60.827 60.827 0 0028.675-11.821" fill="#838383"/><path d="M270.882 53.477a71.954 71.954 0 011.721 27.733 62.711 62.711 0 01-8.889 24.887 59.306 59.306 0 01-18.323 18.479 60.022 60.022 0 01-24.553 8.939l-5.576-21.743a41.625 41.625 0 0016.973-6.169 41.118 41.118 0 0012.689-12.745 44.186 44.186 0 006.149-17.22 50.2 50.2 0 00-1.179-19.206l20.988-2.955z" fill="#F9F9F9"/><path d="M220.835 133.493L206.8 144.196l-5.575-21.736 14.034-10.71 5.576 21.743z" fill="gray"/><path d="M291.41 151.996l-14.042 10.71a58.427 58.427 0 01-27.615 11.332c-36.687 5.107-74.441-22.066-84.342-60.611-7.033-27.45 1.928-53.299 20.892-67.776l14.019-10.655c-18.965 14.47-27.926 40.31-20.885 67.776 9.893 38.577 47.655 65.718 84.335 60.611a58.37 58.37 0 0027.638-11.387z" fill="#4C287F"/><path d="M227.947 23.622c36.639-5.1 74.441 22.066 84.334 60.627 9.893 38.561-11.82 73.986-48.507 79.085-36.687 5.099-74.442-22.067-84.334-60.612-9.893-38.545 11.82-74.025 48.507-79.1zm44.66 57.585a71.954 71.954 0 00-1.72-27.733l-20.988 2.924a50.22 50.22 0 011.178 19.206 44.186 44.186 0 01-6.149 17.22 41.107 41.107 0 01-12.689 12.745 41.62 41.62 0 01-16.972 6.169l5.575 21.743a60.028 60.028 0 0024.549-8.925 59.293 59.293 0 0018.327-18.461 62.715 62.715 0 008.889-24.888z" fill="#6D35AD"/><path d="M38.01 303.16c15.458-11.644 28.931 2.655 61.434 18.966 32.504 16.311 51.792 36.578 92.324 8.128 15.759-11.061 27.503-11.833 34.425-10.648-3.186-1.476-6.504-3.265-9.736-5.1-26.575-9.924-36.215 22.549-64.507 8.975-16.166-7.749-50.362-35.223-71.436-41.997-7.6-2.438-14.944-2.214-22.502-1.171-10.537 5.385-20.928 11.671-28.932 15.396-18.93 8.806-38.218-4.064-38.218-4.064v12.233c5.854 4.234 25.377 15.681 47.148-.718z" fill="#5A2988"/><path opacity=".2" d="M38.01 303.16c15.458-11.644 28.931 2.655 61.434 18.966 32.504 16.311 51.792 36.578 92.324 8.128 15.759-11.061 27.503-11.833 34.425-10.648-3.186-1.476-6.504-3.265-9.736-5.1-26.575-9.924-36.215 22.549-64.507 8.975-16.166-7.749-50.362-35.223-71.436-41.997-7.6-2.438-14.944-2.214-22.502-1.171-10.537 5.385-20.928 11.671-28.932 15.396-18.93 8.806-38.218-4.064-38.218-4.064v12.233c5.854 4.234 25.377 15.681 47.148-.718z" fill="#ACA5DE"/><path d="M80.514 281.484c21.074 6.774 55.27 34.248 71.436 41.997 28.292 13.547 37.932-18.899 64.507-8.975-3.619-2.032-7.126-4.146-10.216-5.927-11.787-6.774-14.644 1.355-26.788 3.387s-67.15-31.836-83.223-39.965c-9.265-4.68-23.87.983-38.218 8.312 7.558-1.043 14.898-1.267 22.502 1.171z" fill="#5A2988"/><path opacity=".2" d="M80.514 281.484c21.074 6.774 55.27 34.248 71.436 41.997 28.292 13.547 37.932-18.899 64.507-8.975-3.619-2.032-7.126-4.146-10.216-5.927-11.787-6.774-14.644 1.355-26.788 3.387s-67.15-31.836-83.223-39.965c-9.265-4.68-23.87.983-38.218 8.312 7.558-1.043 14.898-1.267 22.502 1.171z" fill="#ACA5DE"/><path opacity=".2" d="M80.514 281.484c21.074 6.774 55.27 34.248 71.436 41.997 28.292 13.547 37.932-18.899 64.507-8.975-3.619-2.032-7.126-4.146-10.216-5.927-11.787-6.774-14.644 1.355-26.788 3.387s-67.15-31.836-83.223-39.965c-9.265-4.68-23.87.983-38.218 8.312 7.558-1.043 14.898-1.267 22.502 1.171z" fill="#ACA5DE"/><path d="M466.982 303.16c-8.033-1.138-15.837-8.914-24.809-15.505-3.058-1.652-6.333-3.806-10.087-6.225a39.145 39.145 0 00-2.057-.914c-11.055-2.872-29.696 21.161-38.694 29.804-9.568 9.171-17.934 3.021-25.277 0-7.344-3.021-15.516 7.085-24.446 10.472-8.929 3.387-23.573-8.806-34.535-17.612-4.136-3.319-9.412-4.131-14.377-3.86-1.656.791-3.232 2.096-4.665 3.86-4.929 6.374-12.662 8.752-19.859 9.633 1.229 1.246 10.544 9.699 24.503-3.536 11.072-10.506 20.002 14.902 34.646 21.675 14.645 6.774 34.011-12.87 49.291-2.709 15.28 10.16 25.242 14.522 50.72 0 25.477-14.523 28.574-.678 40.361 7.451 5.586 3.854 12.633 2.56 18.502.135v-39.09s-4.929 8.453-19.217 6.421z" fill="#5A2988"/><path opacity=".2" d="M466.982 303.16c-8.033-1.138-15.837-8.914-24.809-15.505-3.058-1.652-6.333-3.806-10.087-6.225a39.145 39.145 0 00-2.057-.914c-11.055-2.872-29.696 21.161-38.694 29.804-9.568 9.171-17.934 3.021-25.277 0-7.344-3.021-15.516 7.085-24.446 10.472-8.929 3.387-23.573-8.806-34.535-17.612-4.136-3.319-9.412-4.131-14.377-3.86-1.656.791-3.232 2.096-4.665 3.86-4.929 6.374-12.662 8.752-19.859 9.633 1.229 1.246 10.544 9.699 24.503-3.536 11.072-10.506 20.002 14.902 34.646 21.675 14.645 6.774 34.011-12.87 49.291-2.709 15.28 10.16 25.242 14.522 50.72 0 25.477-14.523 28.574-.678 40.361 7.451 5.586 3.854 12.633 2.56 18.502.135v-39.09s-4.929 8.453-19.217 6.421z" fill="#ACA5DE"/><path d="M307.077 303.16c10.962 8.806 25.606 20.998 34.535 17.612 8.93-3.387 17.102-13.493 24.446-10.472 7.343 3.021 15.716 9.171 25.277 0 8.998-8.623 27.639-32.656 38.694-29.804-3.818-1.59-7.714-2.4-11.623-2.418-20.716 0-33.575 37.254-57.506 26.417-8.597-3.888-23.931 6.773-35.361 0-9.544-5.656-23.813-9.883-32.839-5.216 4.965-.251 10.233.562 14.377 3.881z" fill="#5A2988"/><path opacity=".2" d="M307.077 303.16c10.962 8.806 25.606 20.998 34.535 17.612 8.93-3.387 17.102-13.493 24.446-10.472 7.343 3.021 15.716 9.171 25.277 0 8.998-8.623 27.639-32.656 38.694-29.804-3.818-1.59-7.714-2.4-11.623-2.418-20.716 0-33.575 37.254-57.506 26.417-8.597-3.888-23.931 6.773-35.361 0-9.544-5.656-23.813-9.883-32.839-5.216 4.965-.251 10.233.562 14.377 3.881z" fill="#ACA5DE"/><path opacity=".2" d="M307.077 303.16c10.962 8.806 25.606 20.998 34.535 17.612 8.93-3.387 17.102-13.493 24.446-10.472 7.343 3.021 15.716 9.171 25.277 0 8.998-8.623 27.639-32.656 38.694-29.804-3.818-1.59-7.714-2.4-11.623-2.418-20.716 0-33.575 37.254-57.506 26.417-8.597-3.888-23.931 6.773-35.361 0-9.544-5.656-23.813-9.883-32.839-5.216 4.965-.251 10.233.562 14.377 3.881z" fill="#ACA5DE"/><path d="M224.366 257.719s1.363-21.511-1.364-26.972c-5.461 0-5.12-3.416-5.461-6.832-.341-3.416-3.263-8.993-1.711-10.24 1.711-1.364 3.415-.682 4.315 1.515.123-4.931-6.361-30.264 23.679-30.264 30.039 0 22.874 30.801 22.874 30.801s1.291-2.901 3.757-2.052c2.045.681.682 3.662 0 5.758s-.682 10.632-4.098 11.314c-2.045.341-2.386-.682-2.386-.682s-1.711 18.131 0 28.335c-15.368.044-39.605-.681-39.605-.681z" fill="#fff"/><path opacity=".2" d="M233.925 250.89s-4.779-1.704-6.143-8.536c-1.363-6.832-3.075-14.338-3.075-14.338s-3.068-.682-4.097-2.045a14.192 14.192 0 01-1.705-3.416s0 3.895.682 5.207c.682 1.313 2.734.936 2.734.936 2.488 8.318 2.901 17.094-.341 24.927a35.223 35.223 0 0111.945-2.735z" fill="#6A6A6A"/><path opacity=".4" d="M255.777 249.527s4.438-1.023 4.779-14.338c.341-13.316 1.364-22.533 1.364-22.533h11.371l-1.573 46.415s-6.382-10.567-15.941-9.544zm-37.895-36.531a24.54 24.54 0 011.022 3.482h1.364s-.341-3.141-2.386-3.482z" fill="#6A6A6A"/><path opacity=".4" d="M262.268 226.994s3.415 1.363 4.779-3.075c.682 4.438-1.023 5.903-4.779 5.171v-2.096z" fill="#6A6A6A"/><path d="M225.388 187.736s-10.922 3.409-8.877 15.361c2.046 11.952 8.877 33.796 12.33 35.537 3.452 1.74 10.922 2.117 15.019 2.117 4.098 0 12.634.269 15.368-2.117s8.993-22.483 9.428-24.368c.436-1.886 12.968-25.384-15.955-35.718-28.676-10.27-28.676 6.795-27.313 9.188z" fill="#262626"/><path opacity=".4" d="M225.043 191.487s-8.195 11.604 2.394 24.927c-1.712-18.095-2.394-24.927-2.394-24.927zm10.931-10.92l31.758 23.389s1.872-9.486-11.603-18.61c-11.626-7.854-20.155-4.779-20.155-4.779zm-4.096 3.753s18.776 7.165 28.335 27.312a147.334 147.334 0 00-28.335-27.312zm-1.711 4.102s16.731 11.604 24.658 27.994c-14.07-16.717-24.658-27.994-24.658-27.994z" fill="#6A6A6A"/><path opacity=".8" d="M368.85 228.343c1.904-2.837 1.512-6.436-.876-8.038-2.387-1.603-5.867-.603-7.771 2.234-1.904 2.837-1.512 6.436.876 8.039 2.388 1.602 5.867.602 7.771-2.235z" fill="#7ACCCC"/><path d="M371.083 229.842c2.889-4.303 2.294-9.762-1.327-12.193-3.622-2.431-8.9-.913-11.788 3.39-2.889 4.304-2.294 9.763 1.327 12.194 3.622 2.431 8.9.913 11.788-3.391z" stroke="#7ACCCC" stroke-width=".474" stroke-miterlimit="10"/><path opacity=".8" d="M349.378 238.45c2.34-1.017 3.257-4.094 2.049-6.873-1.208-2.778-4.084-4.206-6.424-3.188-2.34 1.017-3.258 4.094-2.05 6.873 1.208 2.778 4.085 4.206 6.425 3.188z" fill="#7ACCCC"/><path d="M347.179 243.349c3.958-1.706 5.524-6.9 3.497-11.601-2.026-4.701-6.877-7.128-10.835-5.422-3.958 1.706-5.523 6.9-3.497 11.6 2.026 4.701 6.877 7.129 10.835 5.423z" stroke="#7ACCCC" stroke-width=".474" stroke-miterlimit="10"/><path d="M371.169 305.859c-.725-3.88-3.582-12.953-5.867-20.749-1.044-4.352-3.148-12.997-3.43-13.635-.385-.856.964-3.735 3.191-6.034 2.226-2.299 2.951-7.775 3.046-9.653.094-1.878-1.879-.907-2.002-3.22-.123-2.314-.312-2.945-1.349-3.191-1.037-.247-2.263-1.088-.957-3.169 1.305-2.082.167-4.606-1.451-5.077-1.617-.472-3.394 1.131-3.394 1.131s2.705-5.345 3.576-6.15c.87-.805 2.284-5.359 2.857-6.73.573-1.371 3.873-5.592 1.596-6.302-3.953-.769-6.462 4.793-7.79 6.839-1.327 2.045-4.097 7.803-5.185 9.667-1.088 1.864-3.532 5.802-3.532 5.802l-3.488 3.177a15.754 15.754 0 01-.958-5.868c.189-2.901.385-7.346-.478-8.971-.863-1.624-4.062-1.073-4.112.181-.051 1.255-.827 5.628-.921 8.138-.095 2.509-.218 15.629-.218 15.629-.145 2.219.725 4.076 1.936 6.215.827 1.45 2.669 8.507 4.083 13.917.402 1.519.686 3.066.849 4.627.936 9.066 1.124 24.485 1.124 24.485 7.847 7.172 13.99 21.851 14.679 27.653 3.075 0 6.825-3.757 9.211-5.802 2.386-2.045.319-15.745-1.016-22.91z" fill="#fff"/><path opacity=".4" d="M346.916 238.861a22.308 22.308 0 00-1.639 4.757c-.275 1.871.566 7.557.566 7.557a4.95 4.95 0 011.762-3.249 37.821 37.821 0 01-.689-9.065zm20.511-16.195a3.054 3.054 0 01-.29 2.299c-.667 1.023-2.647 3.67-2.676 4.504-.029.834-2.292 5.367-3.387 6.788-1.095 1.422-4.489 8.217-4.765 10.095-.275 1.879 1.248-1.965 2.234-2.081.986-.116 3.097-.45 3.626 1.45.53 1.901.356 2.046-1.008 4.751-1.363 2.705-2.937 5.802-3.242 8.492-.304 2.691-1.24 5.193-.261 7.115.979 1.922 3.445 3.264 3.38 4.939-.182 4.729 13.054 56.01 6.034 58.338 3.198 2.459 9.326.776 10.878-3.88.544-1.639-15.484-53.363-15.44-54.618.043-1.254 2.502-4.264 3.242-4.989.74-.726 4.126-7.514 2.988-10.879-1.139-3.365-1.748-3.626-2.633-2.4-.885 1.225-5.251 6.092-5.497 7.129.776-3.946 1.131-7.913 3.757-11.169 2.625-3.256.399-9.639-3.561-7.978a22.422 22.422 0 004.837-9.761c.74-3.155 4.627-6.361 1.784-8.145zm-25.993 11.118h1.936c.929 0 1.124 1.966 1.161 2.771a.41.41 0 01-.319.427c-.906.24-1.85.297-2.778.167a6.158 6.158 0 002.712-.42c.196 0-.101-2.379-.609-2.72h-2.118c0-.29.015-.225.015-.225z" fill="#6A6A6A"/><path d="M174.179 256.694c1.516.196 6.832-24.919 10.248-29.735 3.416-4.815 6.484-5.461 8.87-7.854 2.386-2.393 2.393-5.461 3.415-7.847 1.023-2.386-1.022-3.416-1.022-6.832s-3.416-1.363-3.757-.682c-.341.682.341 7.855-1.363 7.855-1.705 0-3.075 1.022-3.757-1.712-.682-2.734.682-5.802.682-5.802s.34 1.023 1.37.341c1.023.682 2.386.682 2.727.341.341-.341 0-1.364.341-2.727a10.53 10.53 0 00-.682-2.734c-.34-1.023-3.075-3.757-4.097-4.098-1.023-.341-3.075 0-3.757 2.393-1.704.341-2.386.682-3.068 1.364a1.884 1.884 0 01-1.711.682c-.682 0-1.023.341-2.386 1.37-1.364 1.03-5.802 4.091-6.528 5.121a4.536 4.536 0 00-1.022 2.727c0 1.022.341 10.929 0 13.315-.341 2.386-23.208 31.069-25.26 33.796-2.053 2.727-4.265 4.243-4.011 6.216.254 1.972 1.262 6.418 2.292 7.615 1.755-2.865 13.359-15.499 32.476-13.113z" fill="#fff"/><path opacity=".2" d="M156.912 258.667s11.466-10.842 16.245-22.794c4.779-11.952 7.514-12.975 10.24-13.316a13.5 13.5 0 007.855-4.097c1.704-2.046 4.438-6.484 4.438-8.196 0-1.711-1.704-.681-2.045-5.12-.341-4.438 0-4.779 0-4.779h.363s-.363 3.075 0 4.438a1.607 1.607 0 001.842 1.125 7.84 7.84 0 001.566 2.632c1.03 1.023-.108 3.576-.391 4.518-.283.943-.972 5.041-2.336 6.063-1.363 1.023-5.801 3.757-6.49 5.121-.689 1.363-3.409 3.756-5.121 9.906-1.711 6.15-5.12 20.822-7.506 22.867-2.415 0-18.66 1.632-18.66 1.632zm11.799-52.152s4.098-2.734 6.15-3.757c2.052-1.022 3.749.341 5.12-.34 1.371-.682 3.068-3.416 3.409-4.78-.341-2.052-2.386-1.022-3.75-.682-1.363.341-3.756 1.023-4.779 2.046-1.023 1.022-5.802 6.142-6.15 7.513zm18.784-1.015v-1.741c0-1.001.681-2.364.681-4.757a8.045 8.045 0 010 3.242 7.446 7.446 0 001.712-2.22c-.682 2.394-1.197 2.582-1.197 2.582.103.721.161 1.448.174 2.176 0 1.052-1.37.718-1.37.718z" fill="#6A6A6A"/><path d="M196.269 251.918s6.244-1.705 11.712.725c5.469 2.429 11.865 4.772 13.954 3.234 2.089-1.537 17.123-3.959 22.047-3.959 4.925 0 20.873 3.075 24.869 7.172 3.996 4.098 34.036 15.702 37.103 16.383 3.068.682 7.173 2.735 8.536 6.151 1.364 3.415 2.394 3.756 4.78 5.12 2.386 1.363 1.711 6.143 6.491 8.877 4.779 2.734 6.824 4.097 7.165 5.461 3.757 1.363 10.929 3.757 13.316 3.075 2.386-.682 12.633 5.461 13.656 11.945 1.022 6.483 7.513 15.701 4.438 18.776-3.075 3.075-6.143 1.023-8.536 2.052-2.393 1.03-23.556.341-31.751-1.37-8.195-1.712-23.208-2.727-24.237-.341-1.03 2.386-8.363 50.868-8.363 50.868H182.141l11.843-32.432s-11.27-24.579-16.049-43.696c-11.263-15.02-37.213-30.047-38.917-44.044-1.704-13.997 31.41-13.997 35.849-10.581 7.165.681 8.188-.682 11.263.681 6.824-4.779 10.139-4.097 10.139-4.097z" fill="#7ACCCC"/><path d="M220.268 256.365s1.023-5.432 4.417-7.136c3.394-1.704 9.515-4.482 19.705-4.482 10.189 0 17.405 2.379 20.422 5.802 3.017 3.423 4.04 8.529 4.04 8.529s-22.084-11.517-48.584-2.713zm86.718 20.82s-6.15 4.779-8.195 14.338c-2.045 9.558-1.712 15.019-1.712 15.019l9.907-29.357zm-152.636-7.344l26.689-13.49s-7.739.776-12.083 2.734a44.233 44.233 0 00-14.606 10.756zm-12.947 2.903s1.915-13.657 11.952-16.391c10.038-2.734 18.095-3.408 21.511-1.022 6.172-3.416-20.242-3.416-28.219-3.416-7.978 0-14.802 11.27-5.244 20.829z" fill="#6BB1AF"/></g></g><defs><clipPath id="clip0_3665_86960"><path fill="#fff" transform="translate(0 .584)" d="M0 0h479.697v280H0z"/></clipPath><clipPath id="clip1_3665_86960"><rect x="-1" y="-47" width="481" height="416" rx="13.867" fill="#fff"/></clipPath><clipPath id="clip2_3665_86960"><path fill="#fff" transform="rotate(-27.082 424.983 291.105)" d="M0 0h252.38v138.161H0z"/></clipPath><clipPath id="clip3_3665_86960"><path fill="#fff" transform="translate(323.518 -47.131)" d="M0 0h148.515v148.515H0z"/></clipPath></defs></svg>