<svg width="381" height="192" fill="none" xmlns="http://www.w3.org/2000/svg"><g clip-path="url(#clip0_228_4574)"><path fill="#D6B7F5" d="M.333 0H381v192H.333z"/><g clip-path="url(#clip1_228_4574)"><path d="M285.94 17.362h-.585c-1.44-7-16.91-9.78-34.555-6.16-17.645 3.62-30.78 9.355-29.34 16.385h.585c1.44 7 16.91 9.775 34.555 6.16s30.78-9.365 29.34-16.385z" fill="#9792D7"/><path d="M255.999 33.758c17.643-3.615 30.78-12.237 29.342-19.257-1.439-7.02-16.908-9.78-34.551-6.164-17.644 3.615-30.78 12.236-29.342 19.256 1.439 7.02 16.908 9.78 34.551 6.165z" fill="#706BB1"/><path opacity=".4" d="M232.15 18.557l9.215-3.925s3.5 3.72 11.585 4.33a33.193 33.193 0 0015.405-2.705l7 4.395s-17.285 7.5-30.265 4.125c-10.25-2.69-12.94-6.22-12.94-6.22z" fill="#9792D7"/></g><g clip-path="url(#clip2_228_4574)"><path d="M86.325 100.262h3.825c9.337-5.317 27.75 9.405 41.107 32.888 13.358 23.482 16.62 46.822 7.283 52.14h-3.825c-9.338 5.317-27.75-9.405-41.108-32.888-13.357-23.482-16.62-46.822-7.282-52.14z" fill="#9792D7"/><path d="M138.541 183.097c9.341-5.317 6.08-28.66-7.284-52.138-13.365-23.478-31.771-38.2-41.113-32.882-9.341 5.317-6.08 28.66 7.284 52.138 13.365 23.478 31.771 38.2 41.113 32.882z" fill="#706BB1"/><path opacity=".4" d="M113.587 161.71l-6.862-11.25s8.67.615 10.5-8.122c2.67-12.511-6.045-24.473-6.045-24.473l9.87 2.25s9.3 19.088 5.115 31.035c-3.908 11.183-12.578 10.56-12.578 10.56z" fill="#9792D7"/></g><g clip-path="url(#clip3_228_4574)"><path d="M111.805 18.713C86.927 4.35 61.555 1.77 55.06 12.96c-.2.35-.381.71-.54 1.08h-1.388c-5.152 14.513 9.616 34.373 33.75 48.263 24.878 14.362 50.25 16.935 56.745 5.752.201-.35.382-.71.54-1.08 6.503-14.467-8.257-34.35-32.362-48.262z" fill="#9792D7"/><path d="M145.15 64.976c6.459-11.188-8.471-31.902-33.348-46.265s-50.28-16.936-56.74-5.747c-6.46 11.188 8.47 31.901 33.347 46.264 24.878 14.363 50.281 16.937 56.741 5.748z" fill="#CFBBFF"/><path opacity=".6" d="M102.782 53.865c7.5-5.415 6.36-20.318-19.552-35.25l8.438-5.25c15.914 7.027 39.329 32.063 23.249 48.982l-12.135-8.482z" fill="#9792D7"/></g><g clip-path="url(#clip4_228_4574)"><path d="M384.728 25.117h-2.485c-6.065-10.437-32.255-6.52-58.479 8.736-26.223 15.255-42.566 36.088-36.5 46.525h2.485c6.073 10.437 32.255 6.52 58.487-8.736 26.232-15.255 42.566-36.088 36.492-46.525z" fill="#706BB1"/><path d="M345.755 67.38c26.227-15.26 42.567-36.088 36.496-46.524-6.071-10.435-32.254-6.525-58.482 8.733-26.227 15.259-42.567 36.088-36.495 46.523 6.071 10.436 32.254 6.526 58.481-8.733z" fill="#9792D7"/><path opacity=".4" d="M299.436 55.915l12.636-11.22s7.581 4.051 20.832.69a55.941 55.941 0 0023.141-12.636l13.562 3.243s-23.587 21.27-46.112 22.854c-17.825 1.29-24.059-2.931-24.059-2.931z" fill="#CFBBFF"/></g><g clip-path="url(#clip5_228_4574)"><path d="M298.748 125.448h-2.333a18.266 18.266 0 00-2.182-1.823c-12.488-8.775-34.186.585-48.466 20.895-13.38 19.05-15.495 40.965-5.415 50.865h2.28a17.136 17.136 0 002.183 1.823c12.487 8.775 34.178-.585 48.458-20.895 13.41-19.05 15.517-40.965 5.475-50.865z" fill="#CFBBFF"/><path d="M293.298 176.316c14.276-20.313 15.726-43.895 3.238-52.672-12.488-8.776-34.185.575-48.461 20.888-14.276 20.313-15.726 43.895-3.238 52.672 12.488 8.777 34.185-.575 48.461-20.888z" fill="#9792D7"/><path opacity=".4" d="M245.438 176.298l9.322-14.768s18.66 8.55 36.533-17.1c6.997 6.218 9.33 7.77 9.33 7.77s-18.653 33.428-55.185 24.098z" fill="#CFBBFF"/></g><g clip-path="url(#clip6_228_4574)"><path d="M78.59 139.625h-.585c-1.44-7-16.91-9.78-34.555-6.16-17.645 3.62-30.78 9.355-29.34 16.385h.585c1.44 7 16.91 9.775 34.555 6.16s30.78-9.365 29.34-16.385z" fill="#9792D7"/><path d="M48.649 156.021c17.643-3.615 30.78-12.237 29.342-19.257-1.439-7.02-16.908-9.78-34.551-6.165-17.643 3.615-30.78 12.237-29.342 19.257 1.439 7.02 16.908 9.78 34.551 6.165z" fill="#706BB1"/><path opacity=".4" d="M24.8 140.82l9.215-3.925s3.5 3.72 11.585 4.33a33.196 33.196 0 0015.405-2.705l7 4.395s-17.285 7.5-30.265 4.125c-10.25-2.69-12.94-6.22-12.94-6.22z" fill="#9792D7"/></g><g clip-path="url(#clip7_228_4574)"><path d="M90.027 247.866s-1.91-38.219 27.415-52.052c9.48-4.457 20.399-8.19 30.711-15.984 6.32-6.313 10.524-.6 28.569 3.911 18.044 4.511 46.503-7.214 61.135-1.201 14.632 6.012 22.522 11.308 34.806 19.43 12.285 8.121 19.109 38.218 19.109 38.218s-34.205 24.105-102.759 24.105-98.986-16.427-98.986-16.427z" fill="#7ACDCD"/><path opacity=".4" d="M161.072 158.783s-3.043 4.866-.464 7.705c2.887 3.187 18.011 18.235 26.562 20.713 8.551 2.477 12.837 1.126 15.758-.225 2.921-1.352 17.444-21.764 17.895-28.296 3.412.608 2.832 4.02 5.193 6.723 3.249 3.712 5.972 12.857 11.828 17.137.798 12.625-18.646 39.89-18.646 39.89s-11.376-21.737-20.842-24.255c-4.511-1.201-7.221-.601-14.735-1.201-3.214-.26-17.137 23.852-17.137 23.852s-21.948-25.934-20.146-41.296c1.01-8.551 4.982-8.872 7.507-14.735a10.528 10.528 0 017.227-6.012z" fill="#269696"/><path d="M159.264 123.608s5.112 26.46 3.01 33.373a533.672 533.672 0 00-3.59 12.325s16.836 22.856 32.171 24.358c15.336 1.501 28.869-28.869 28.869-28.869s-7.07-20.289 1.501-44.797c-20.767-3.31-61.961 3.61-61.961 3.61z" fill="#fff"/><path opacity=".4" d="M157.762 122.407s8.231 21.368 28.262 29.462c15.635 6.313 26.159 5.412 33.079 3.01-.3-6.019-1.809-25.361 2.73-32.875-32.8-3.009-64.071.403-64.071.403z" fill="#6A6A6A"/><path d="M162.54 155.753s-.758 4.21 1.535 6.742c2.573 2.84 15.479 22.522 23.095 24.706 7.616 2.184 12.687-3.761 14.591-6.47 1.652-2.341 15.527-19.375 15.929-25.19 4.409-1.399 4.416 1.365 6.525 3.747 2.893 3.31 8.414 19.443 13.649 23.252-1.406 11.226-18.645 39.89-18.645 39.89s-9.637-28.466-20.269-27.429c-10.633 1.038-16.639-2.409-19.444-3.009-2.805-.601-13.028 28.868-13.028 28.868s-22.809-32.908-19.437-43.132c3.371-10.223 7.214-12.626 9.022-18.038 1.809-5.411 6.477-3.937 6.477-3.937z" fill="#7ACDCD"/><path d="M144.871 82.558s-4.778-18.748 3.31-35.284c8.087-16.536 16.174-23.156 39.33-22.05 23.157 1.105 33.441 11.39 39.324 19.846 5.883 8.455 5.515 27.196 5.146 30.875-.368 3.678-1.106 7.35-1.106 7.35s4.416-5.515 8.088-2.942c3.671 2.573 3.692 12.592 2.088 17.096-1.501 4.211-7.507 14.735-10.824 16.536-2.975 1.625-4.859-2.388-4.859-2.388s-6.265 24.937-23.156 32.342c-16.509 7.234-30.875-4.409-38.962-13.233-8.088-8.824-7.351-16.175-13.602-16.536-6.252-.362-18.338-17.328-13.595-29.776 2.942-7.72 5.514.73 8.818-1.836z" fill="#fff"/><path d="M144.871 82.558s2.941 6.981 5.145 6.251c2.205-.73 4.047-3.31 4.047-3.31s-4.415-7.35-2.941-12.496c1.474-5.146-2.204-18.379 2.941-24.63 5.146-6.252 3.304-12.496 12.865-11.39 9.561 1.105 13.226 1.467 24.255.736 11.029-.73 21.32-2.572 28.302 4.04 6.982 6.614 9.923 10.292 8.811 14.701-1.113 4.409 1.105 11.766.737 19.11a54.72 54.72 0 01-1.836 12.127s2.204 1.105 3.672-4.41a12.006 12.006 0 013.76-3.084s.102-4.613 1.706-6.313c1.604-1.699.301-4.613-.505-7.22-.805-2.607-1.501-4.409-.498-8.818 1.003-4.408-5.815-11.602-6.613-15.935-.799-4.334-3.208-10.422-11.227-16.339-8.019-5.917-9.821-1.098-16.14-6.313-6.32-5.214-11.827-2.306-18.427-2.102-6.599.205-7.418-3.712-13.649-.3-6.231 3.413-9.91 3.91-13.52 7.323-3.61 3.412-7.814 5.508-5.508 8.92 2.307 3.412-6.312 6.292-6.217 8.817.096 2.526.505 8.422-1.501 9.555-2.007 1.133-6.313 4.777-5.112 8.121 1.201 3.345 3.706 8.415 2.907 9.821-.798 1.406 3.508 12.128 1.502 13.13 2.525 1.366 3.044.008 3.044.008z" fill="#262626"/><path d="M167.31 16.542a14.828 14.828 0 0114.428 5.016c4.579 5.31 5.412 10.825 11.827 10.422 5.637-.355 6.825 1.604 7.016 5.214" stroke="#7F7F7F" stroke-width=".682" stroke-miterlimit="10"/><path d="M203.59 37.194s1.802-5.016-3.207-6.62c-5.01-1.604-9.22-1.604-11.029-5.01-1.215-2.3-4.006-10.025-9.418-10.236m-40.662 58.03s.888-5.153 4.266-6.88c3.378-1.726 5.262-8.435 7.671-7.506M139.274 77.18s2.048-5.712 4.846-5.726c2.798-.014 4.716-8.613 8.538-6.702M140.4 79.207s2.205-3.412 4.839-2.239c2.635 1.174 3.597-6.763 7.419-7.097m74.368-.001s3.351-1.003 5.133 1.72a35.476 35.476 0 004.941 5.59m-10.074-3.747s2.048-1.604 4.955 2.512c2.907 4.115 5.119 3.125 5.119 3.125m-10.074-1.89a17.015 17.015 0 014.389 3.07c1.569 1.714 4.436 1.714 4.436 1.714" stroke="#7F7F7F" stroke-width=".682" stroke-miterlimit="10"/><path opacity=".4" d="M181.82 93.839s-4.095-1.604 1.098-2.402c3.324-.512 6.218-2.41 9.221-2.41 2.824.08 5.583.874 8.019 2.307 2.108 1.201 2.607 1.502.505 1.802-2.102.3-6.716 3.31-9.425 3.01-2.71-.3-3.406-.785-9.418-2.307zm-5.733 13.465s7.33-1.365 10.639-1.051c3.31.314 5.89.73 7.364.3 3.993-1.16 11.643.751 11.643.751s-6.695 1.911-8.838 2.109a64.874 64.874 0 01-8.817.198 53.741 53.741 0 01-11.991-2.307zm7.65 10.517s11.841-.751 15.301 0c3.46.751-5.992 2.866-7.65 2.866-2.867 0-10.51-2.122-7.651-2.866z" fill="#6A6A6A"/><path d="M158.684 66.479s10.237-4.511 18.345-2.73c5.111-1.802 2.102-6.313 2.102-6.313s-7.508 1.208-10.237 1.208c-2.73 0-8.122.32-10.21 7.835zm12.51 12.728c1.549 0 2.804-1.705 2.804-3.808 0-2.104-1.255-3.808-2.804-3.808-1.55 0-2.805 1.704-2.805 3.808 0 2.103 1.255 3.808 2.805 3.808zm31.373-22.064s-2.409 6.312 2.73 6.613c5.139.3 10.523 0 13.833 3.31 1.802-2.73.601-7.214-6.313-8.415-6.913-1.201-10.25-1.508-10.25-1.508zm7.404 21.927c1.55 0 2.805-1.705 2.805-3.808 0-2.103-1.255-3.808-2.805-3.808-1.549 0-2.804 1.705-2.804 3.808 0 2.103 1.255 3.808 2.804 3.808z" fill="#262626"/><path opacity=".6" d="M137.616 90.836s.15-4.661 3.01-3.76c1.433.45 8.264 5.712 8.264 7.664s1.659 9.623-.15 9.623c-1.808 0-4.654-4.061-3.153-7.815 1.502-3.753-4.211-1.958-4.361-4.36-.15-2.403-3.61-1.352-3.61-1.352z" fill="#6A6A6A"/><path d="M145.717 90.836s-2.409 2.552-1.365 4.777c1.044 2.225 2.573.86 3.303 2.41 1.201 2.552 2.109 0 1.201-3.31-.907-3.31-1.774-2.826-3.139-3.877z" fill="#7F7F7F"/><path opacity=".6" d="M238.792 86.175s-1.365-1.208-3.603 1.05c-2.239 2.26-6.62 7.064-5.412 8.266 1.208 1.2-1.659 5.411-.601 6.77 1.058 1.358 1.201-1.809 2.853-2.73 1.651-.922-.15-3.91.15-5.112.3-1.201 3.16-3.603 3.61-4.811.451-1.208 1.379-2.983 3.003-3.433z" fill="#6A6A6A"/><path d="M231.128 97.149s.682-.437.792-3.18a11.242 11.242 0 011.365-4.716s-2.839 2.607-3.495 4.586c-.6 1.822.226 1.365.26 2.464.041 1.508 1.078.846 1.078.846z" fill="#7F7F7F"/></g></g><defs><clipPath id="clip0_228_4574"><path fill="#fff" transform="translate(.333)" d="M0 0h380.667v192H0z"/></clipPath><clipPath id="clip1_228_4574"><path fill="#fff" transform="translate(221.35 6.738)" d="M0 0h64.7v31.475H0z"/></clipPath><clipPath id="clip2_228_4574"><path fill="#fff" transform="translate(81 97)" d="M0 0h62.873v89.377H0z"/></clipPath><clipPath id="clip3_228_4574"><path fill="#fff" transform="translate(52 6)" d="M0 0h94.65v69.045H0z"/></clipPath><clipPath id="clip4_228_4574"><path fill="#fff" transform="translate(286 15)" d="M0 0h100v71.224H0z"/></clipPath><clipPath id="clip5_228_4574"><path fill="#fff" transform="translate(234 118)" d="M0 0h71.032v82.5H0z"/></clipPath><clipPath id="clip6_228_4574"><path fill="#fff" transform="translate(14 129)" d="M0 0h64.7v31.475H0z"/></clipPath><clipPath id="clip7_228_4574"><path fill="#fff" transform="translate(90 15)" d="M0 0h201.786v249.32H0z"/></clipPath></defs></svg>