<?xml version="1.0" standalone="no"?>
<!DOCTYPE svg PUBLIC "-//W3C//DTD SVG 20010904//EN"
 "http://www.w3.org/TR/2001/REC-SVG-20010904/DTD/svg10.dtd">
<svg version="1.0" xmlns="http://www.w3.org/2000/svg"
 width="500.000000pt" height="500.000000pt" viewBox="0 0 500.000000 500.000000"
 preserveAspectRatio="xMidYMid meet">
<metadata>
Created by potrace 1.14, written by Peter Selinger 2001-2017
</metadata>
<g transform="translate(0.000000,500.000000) scale(0.100000,-0.100000)"
fill="#000000" stroke="none">
<path d="M3230 2525 l0 -1975 295 0 295 0 0 1975 0 1975 -295 0 -295 0 0
-1975z"/>
<path d="M2210 2105 l0 -1535 295 0 295 0 0 1535 0 1535 -295 0 -295 0 0
-1535z"/>
<path d="M1180 1650 l0 -1100 285 0 285 0 -2 1098 -3 1097 -282 3 -283 2 0
-1100z"/>
</g>
</svg>
